<?xml version="1.0" encoding="UTF-8" standalone="no"?>
<svg
   xmlns:dc="http://purl.org/dc/elements/1.1/"
   xmlns:cc="http://creativecommons.org/ns#"
   xmlns:rdf="http://www.w3.org/1999/02/22-rdf-syntax-ns#"
   xmlns:svg="http://www.w3.org/2000/svg"
   xmlns="http://www.w3.org/2000/svg"
   xmlns:sodipodi="http://sodipodi.sourceforge.net/DTD/sodipodi-0.dtd"
   xmlns:inkscape="http://www.inkscape.org/namespaces/inkscape"
   sodipodi:docname="5.svg"
   inkscape:version="1.0 (4035a4f, 2020-05-01)"
   id="svg8"
   version="1.1"
   viewBox="0 0 20 20"
   height="20mm"
   width="20mm">
  <defs
     id="defs2" />
  <sodipodi:namedview
     fit-margin-bottom="0"
     fit-margin-right="0"
     fit-margin-left="0"
     fit-margin-top="0"
     inkscape:window-maximized="0"
     inkscape:window-y="23"
     inkscape:window-x="87"
     inkscape:window-height="826"
     inkscape:window-width="1252"
     showgrid="false"
     inkscape:document-rotation="0"
     inkscape:current-layer="layer1"
     inkscape:document-units="mm"
     inkscape:cy="72.063093"
     inkscape:cx="70.38838"
     inkscape:zoom="2.5292297"
     inkscape:pageshadow="2"
     inkscape:pageopacity="0.0"
     borderopacity="1.0"
     bordercolor="#666666"
     pagecolor="#ffffff"
     id="base" />
  <metadata
     id="metadata5">
    <rdf:RDF>
      <cc:Work
         rdf:about="">
        <dc:format>image/svg+xml</dc:format>
        <dc:type
           rdf:resource="http://purl.org/dc/dcmitype/StillImage" />
        <dc:title></dc:title>
      </cc:Work>
    </rdf:RDF>
  </metadata>
  <g
     transform="translate(-43.011082,-46.13916)"
     id="layer1"
     inkscape:groupmode="layer"
     inkscape:label="Layer 1">
    <path
       d="m 43.011082,46.13916 h 20 v 20 h -20 z"
       style="fill:#666666;stroke:none;stroke-width:0.418042;stroke-linecap:round;stroke-linejoin:round"
       id="rect833" />
    <g
       style="font-style:normal;font-variant:normal;font-weight:normal;font-stretch:normal;font-size:14.1111px;line-height:1.25;font-family:de;-inkscape-font-specification:de;stroke-width:0.264583"
       id="text843"
       aria-label="5">
      <path
         id="path846"
         style="font-style:normal;font-variant:normal;font-weight:normal;font-stretch:normal;font-size:14.1111px;font-family:de;-inkscape-font-specification:de;stroke-width:0.264583"
         d="m 50.117206,50.89573 h 5.463917 v 1.171332 H 51.39189 v 2.521808 q 0.303168,-0.103353 0.606337,-0.151584 0.303168,-0.05512 0.606336,-0.05512 1.722546,0 2.728513,0.943956 1.005967,0.943955 1.005967,2.556258 0,1.660535 -1.033527,2.58382 -1.033528,0.916395 -2.914549,0.916395 -0.647677,0 -1.322916,-0.110243 -0.668348,-0.110243 -1.384927,-0.330729 v -1.398708 q 0.620117,0.337619 1.281575,0.502984 0.661457,0.165364 1.398707,0.165364 1.192002,0 1.887911,-0.627007 0.695909,-0.627007 0.695909,-1.701876 0,-1.074868 -0.695909,-1.701875 -0.695909,-0.627007 -1.887911,-0.627007 -0.558105,0 -1.11621,0.124023 -0.551215,0.124023 -1.12999,0.38585 z" />
    </g>
  </g>
</svg>
