<?xml version="1.0" encoding="UTF-8" standalone="no"?>
<svg
   xmlns:dc="http://purl.org/dc/elements/1.1/"
   xmlns:cc="http://creativecommons.org/ns#"
   xmlns:rdf="http://www.w3.org/1999/02/22-rdf-syntax-ns#"
   xmlns:svg="http://www.w3.org/2000/svg"
   xmlns="http://www.w3.org/2000/svg"
   xmlns:sodipodi="http://sodipodi.sourceforge.net/DTD/sodipodi-0.dtd"
   xmlns:inkscape="http://www.inkscape.org/namespaces/inkscape"
   sodipodi:docname="6.svg"
   inkscape:version="1.0 (4035a4f, 2020-05-01)"
   id="svg8"
   version="1.1"
   viewBox="0 0 20 20.000002"
   height="20.000002mm"
   width="20mm">
  <defs
     id="defs2" />
  <sodipodi:namedview
     fit-margin-bottom="0"
     fit-margin-right="0"
     fit-margin-left="0"
     fit-margin-top="0"
     inkscape:window-maximized="0"
     inkscape:window-y="23"
     inkscape:window-x="161"
     inkscape:window-height="826"
     inkscape:window-width="1252"
     showgrid="false"
     inkscape:document-rotation="0"
     inkscape:current-layer="layer1"
     inkscape:document-units="mm"
     inkscape:cy="71.685488"
     inkscape:cx="69.48996"
     inkscape:zoom="2.5292297"
     inkscape:pageshadow="2"
     inkscape:pageopacity="0.0"
     borderopacity="1.0"
     bordercolor="#666666"
     pagecolor="#ffffff"
     id="base" />
  <metadata
     id="metadata5">
    <rdf:RDF>
      <cc:Work
         rdf:about="">
        <dc:format>image/svg+xml</dc:format>
        <dc:type
           rdf:resource="http://purl.org/dc/dcmitype/StillImage" />
        <dc:title></dc:title>
      </cc:Work>
    </rdf:RDF>
  </metadata>
  <g
     transform="translate(-43.248789,-46.239068)"
     id="layer1"
     inkscape:groupmode="layer"
     inkscape:label="Layer 1">
    <path
       d="m 43.248789,46.239068 h 20 v 20.000001 h -20 z"
       style="fill:#666666;stroke:none;stroke-width:0.418042;stroke-linecap:round;stroke-linejoin:round"
       id="rect833" />
    <g
       style="font-style:normal;font-variant:normal;font-weight:normal;font-stretch:normal;font-size:14.1111px;line-height:1.25;font-family:de;-inkscape-font-specification:de;stroke-width:0.264583"
       id="text843"
       aria-label="6">
      <path
         id="path846"
         style="font-style:normal;font-variant:normal;font-weight:normal;font-stretch:normal;font-size:14.1111px;font-family:de;-inkscape-font-specification:de;stroke-width:0.264583"
         d="m 53.369367,55.677518 q -0.937065,0 -1.48828,0.640788 -0.544325,0.640787 -0.544325,1.756997 0,1.10932 0.544325,1.756997 0.551215,0.640788 1.48828,0.640788 0.937065,0 1.48139,-0.640788 0.551215,-0.647677 0.551215,-1.756997 0,-1.11621 -0.551215,-1.756997 -0.544325,-0.640788 -1.48139,-0.640788 z m 2.762964,-4.361487 v 1.267794 q -0.523654,-0.248047 -1.061088,-0.37896 -0.530545,-0.130914 -1.054199,-0.130914 -1.378037,0 -2.108397,0.930175 -0.723469,0.930175 -0.826822,2.811196 0.406521,-0.599446 1.019748,-0.916395 0.613226,-0.323838 1.350476,-0.323838 1.550292,0 2.446016,0.943955 0.902614,0.937065 0.902614,2.556259 0,1.584743 -0.937065,2.542478 -0.937065,0.957736 -2.494247,0.957736 -1.784558,0 -2.728514,-1.364256 -0.943955,-1.371147 -0.943955,-3.968747 0,-2.439126 1.157551,-3.886065 1.157551,-1.453829 3.107474,-1.453829 0.523654,0 1.054198,0.103353 0.537435,0.103352 1.11621,0.310058 z" />
    </g>
  </g>
</svg>
